# xmcd CD database file
#
# Track frame offsets:
#	150
#	17967
#	37079
#	56497
#	67743
#	85512
#	99025
#	112706
#	129285
#	150030
#	173124
#	191127
#	208965
#
# Disc length: 2981 seconds
#
# Revision: 1
# Processed by: cddbd v1.5.2PL0 Copyright (c) Steve Scherf et al.
# Submitted via: CDex 1.70beta2
#
DISCID=960ba30d
DTITLE=Beppe Maniglia - Country Love
DYEAR=2000
DGENRE=Country
TTITLE0=Rocky Mountain
TTITLE1=Song For My Bike
TTITLE2=Easy Rider
TTITLE3=Navaho 90
TTITLE4=Country Love
TTITLE5=Pony Boy
TTITLE6=Country Roads
TTITLE7=Indiana
TTITLE8=Star Wood
TTITLE9=Blue Bike
TTITLE10=New Moon Song
TTITLE11=Colorado Spring
TTITLE12=Sioux 90
EXTD=YEAR: 2000
EXTT0=
EXTT1=
EXTT2=
EXTT3=
EXTT4=
EXTT5=
EXTT6=
EXTT7=
EXTT8=
EXTT9=
EXTT10=
EXTT11=
EXTT12=
PLAYORDER=
